<?xml version="1.0" encoding="UTF-8"?>
<svg width="61px" height="56px" viewBox="0 0 61 56" version="1.1" xmlns="http://www.w3.org/2000/svg" xmlns:xlink="http://www.w3.org/1999/xlink">
    <!-- Generator: sketchtool 58 (101010) - https://sketch.com -->
    <title>4AF9A362-5EEF-4CCA-BAFA-F33A9D085A46</title>
    <desc>Created with sketchtool.</desc>
    <g id="Page-1" stroke="none" stroke-width="1" fill="none" fill-rule="evenodd">
        <g id="Desktop-HD" transform="translate(-723.000000, -533.000000)" fill="#C4CCE8" fill-rule="nonzero">
            <g id="Tabs" transform="translate(80.000000, 110.000000)">
                <g id="Tabs-content" transform="translate(0.000000, 64.000000)">
                    <g id="Option" transform="translate(572.000000, 313.000000)">
                        <path d="M92.0812505,76.1411458 C92.0812505,76.5962974 91.7123695,76.9651784 91.257218,76.9651784 L82.0337061,76.9651784 C81.5785545,76.9651784 81.2096736,76.5962974 81.2096736,76.1411458 L81.2096736,72.3526787 C81.2096736,71.8975272 81.5785545,71.5286462 82.0337061,71.5286462 L91.257218,71.5286462 C91.7123695,71.5286462 92.0812505,71.8975272 92.0812505,72.3526787 L92.0812505,76.1411458 Z M106.739807,72.3526787 C106.739807,71.8975272 106.370926,71.5286462 105.915775,71.5286462 L96.6937502,71.5286462 C96.2385986,71.5286462 95.8697177,71.8975272 95.8697177,72.3526787 L95.8697177,76.1411458 C95.8697177,76.5962974 96.2385986,76.9651784 96.6937502,76.9651784 L105.915775,76.9651784 C106.370926,76.9651784 106.739807,76.5962974 106.739807,76.1411458 L106.739807,72.3526787 Z M92.0812505,80.4234375 C92.0812505,79.968286 91.7123695,79.599405 91.257218,79.599405 L82.0337061,79.599405 C81.5785545,79.599405 81.2096736,79.968286 81.2096736,80.4234375 L81.2096736,84.2119047 C81.2096736,84.6670562 81.5785545,85.0359372 82.0337061,85.0359372 L91.257218,85.0359372 C91.7123695,85.0359372 92.0812505,84.6670562 92.0812505,84.2119047 L92.0812505,80.4234375 Z M106.739807,80.4234375 C106.739807,79.968286 106.370926,79.599405 105.915775,79.599405 L96.6937502,79.599405 C96.2385986,79.599405 95.8697177,79.968286 95.8697177,80.4234375 L95.8697177,84.2119047 C95.8697177,84.6670562 96.2385986,85.0359372 96.6937502,85.0359372 L105.915775,85.0359372 C106.370926,85.0359372 106.739807,84.6670562 106.739807,84.2119047 L106.739807,80.4234375 Z M121.398364,80.4234375 C121.398364,79.968286 121.029483,79.599405 120.574331,79.599405 L111.350819,79.599405 C110.895668,79.599405 110.526787,79.968286 110.526787,80.4234375 L110.526787,84.2119047 C110.526787,84.6670562 110.895668,85.0359372 111.350819,85.0359372 L120.574331,85.0359372 C121.029483,85.0359372 121.398364,84.6670562 121.398364,84.2119047 L121.398364,80.4234375 Z M106.739807,88.657813 C106.739807,88.2026614 106.370926,87.8337804 105.915775,87.8337804 L96.6937502,87.8337804 C96.2385986,87.8337804 95.8697177,88.2026614 95.8697177,88.657813 L95.8697177,92.4462801 C95.8697177,92.9014316 96.2385986,93.2703126 96.6937502,93.2703126 L105.915775,93.2703126 C106.370926,93.2703126 106.739807,92.9014316 106.739807,92.4462801 L106.739807,88.657813 Z M121.398364,88.657813 C121.398364,88.2026614 121.029483,87.8337804 120.574331,87.8337804 L111.350819,87.8337804 C110.895668,87.8337804 110.526787,88.2026614 110.526787,88.657813 L110.526787,92.4462801 C110.526787,92.9014316 110.895668,93.2703126 111.350819,93.2703126 L120.574331,93.2703126 C121.029483,93.2703126 121.398364,92.9014316 121.398364,92.4462801 L121.398364,88.657813 Z M131.609525,53.2482138 L131.609525,99.3642859 C131.609525,100.818986 130.429998,102 128.973811,102 L73.6357141,102 C72.1810141,102 71,100.820473 71,99.3642859 L71,53.2482138 C71,51.7935138 72.1795267,50.6124997 73.6357141,50.6124997 L84.0119791,50.6124997 L84.0119791,48.6357141 C84.0119791,47.1810141 85.1915058,46 86.6476932,46 C88.1023932,46 89.2834073,47.1795267 89.2834073,48.6357141 L89.2834073,50.6124997 L113.329092,50.6124997 L113.329092,48.6357141 C113.329092,47.1810141 114.508619,46 115.964807,46 C117.419506,46 118.600521,47.1795267 118.600521,48.6357141 L118.600521,50.6124997 L128.976786,50.6124997 C130.429998,50.6124997 131.609525,51.7920263 131.609525,53.2482138 Z M126.338097,67.4114585 L76.2714282,67.4114585 L76.2714282,96.7270844 L126.338097,96.7270844 L126.338097,67.4114585 Z M126.338097,55.8824404 L118.597546,55.8824404 L118.597546,57.859226 C118.597546,59.313926 117.418019,60.4949401 115.961832,60.4949401 C114.507132,60.4949401 113.326118,59.3154134 113.326118,57.859226 L113.326118,55.8824404 L89.2819198,55.8824404 L89.2819198,57.859226 C89.2819198,59.313926 88.1023932,60.4949401 86.6462057,60.4949401 C85.1915058,60.4949401 84.0104916,59.3154134 84.0104916,57.859226 L84.0104916,55.8824404 L76.2714282,55.8824404 L76.2714282,63.4578873 L126.338097,63.4578873 L126.338097,55.8824404 Z" id="Calendar"></path>
                    </g>
                </g>
            </g>
        </g>
    </g>
</svg>