<svg width="221" height="30" xmlns="http://www.w3.org/2000/svg"><path d="M16.224 8.224h4.864c-.15-1.323-.512-2.496-1.088-3.52a8.56 8.56 0 0 0-2.192-2.576A9.659 9.659 0 0 0 14.8.544 11.512 11.512 0 0 0 11.232 0c-1.75 0-3.323.31-4.72.928-1.397.619-2.576 1.472-3.536 2.56S1.28 5.851.768 7.312C.256 8.773 0 10.357 0 12.064c0 1.664.256 3.216.768 4.656.512 1.44 1.248 2.693 2.208 3.76.96 1.067 2.139 1.904 3.536 2.512 1.397.608 2.97.912 4.72.912 1.408 0 2.699-.213 3.872-.64a8.977 8.977 0 0 0 3.072-1.856 9.274 9.274 0 0 0 2.112-2.944c.533-1.152.864-2.443.992-3.872h-4.864c-.192 1.536-.72 2.773-1.584 3.712-.864.939-2.064 1.408-3.6 1.408-1.13 0-2.09-.219-2.88-.656a5.494 5.494 0 0 1-1.92-1.744 7.567 7.567 0 0 1-1.072-2.448 11.63 11.63 0 0 1-.336-2.8c0-1.003.112-1.973.336-2.912A7.712 7.712 0 0 1 6.432 6.64a5.438 5.438 0 0 1 1.92-1.76c.79-.437 1.75-.656 2.88-.656.619 0 1.21.101 1.776.304a5.165 5.165 0 0 1 1.52.848 5.05 5.05 0 0 1 1.12 1.264c.299.48.49 1.008.576 1.584zm12.032 6.912c0-.661.064-1.312.192-1.952a4.98 4.98 0 0 1 .656-1.696c.31-.49.72-.89 1.232-1.2.512-.31 1.152-.464 1.92-.464s1.413.155 1.936.464c.523.31.939.71 1.248 1.2.31.49.528 1.056.656 1.696a9.929 9.929 0 0 1 0 3.888 5.157 5.157 0 0 1-.656 1.696c-.31.501-.725.901-1.248 1.2-.523.299-1.168.448-1.936.448s-1.408-.15-1.92-.448a3.494 3.494 0 0 1-1.232-1.2 5.157 5.157 0 0 1-.656-1.696 9.69 9.69 0 0 1-.192-1.936zm-4.544 0c0 1.323.203 2.517.608 3.584.405 1.067.981 1.979 1.728 2.736a7.56 7.56 0 0 0 2.688 1.744c1.045.405 2.219.608 3.52.608 1.301 0 2.48-.203 3.536-.608a7.531 7.531 0 0 0 2.704-1.744c.747-.757 1.323-1.67 1.728-2.736.405-1.067.608-2.261.608-3.584s-.203-2.523-.608-3.6c-.405-1.077-.981-1.995-1.728-2.752-.747-.757-1.648-1.344-2.704-1.76-1.056-.416-2.235-.624-3.536-.624-1.301 0-2.475.208-3.52.624a7.743 7.743 0 0 0-2.688 1.76c-.747.757-1.323 1.675-1.728 2.752-.405 1.077-.608 2.277-.608 3.6zm20.192-8.288v16.544h4.544v-9.6c0-.81.117-1.467.352-1.968.235-.501.517-.885.848-1.152.33-.267.672-.448 1.024-.544.352-.096.635-.144.848-.144.725 0 1.275.123 1.648.368s.64.57.8.976c.16.405.25.848.272 1.328.021.48.032.965.032 1.456v9.28h4.544v-9.216c0-.512.037-1.019.112-1.52.075-.501.224-.95.448-1.344.224-.395.533-.715.928-.96s.912-.368 1.552-.368 1.147.107 1.52.32c.373.213.656.501.848.864.192.363.31.79.352 1.28.043.49.064 1.013.064 1.568v9.376h4.544V12.32c0-1.067-.15-1.979-.448-2.736-.299-.757-.715-1.37-1.248-1.84a4.896 4.896 0 0 0-1.92-1.024 8.824 8.824 0 0 0-2.432-.32c-1.152 0-2.15.277-2.992.832-.843.555-1.51 1.195-2 1.92-.448-1.024-1.104-1.739-1.968-2.144-.864-.405-1.819-.608-2.864-.608-1.088 0-2.053.235-2.896.704-.843.47-1.563 1.13-2.16 1.984h-.064v-2.24h-4.288zM81.12 20.416c-.725 0-1.344-.15-1.856-.448a3.595 3.595 0 0 1-1.232-1.168 5.043 5.043 0 0 1-.672-1.68 9.192 9.192 0 0 1-.208-1.952c0-.683.064-1.344.192-1.984A4.98 4.98 0 0 1 78 11.488c.31-.49.715-.89 1.216-1.2.501-.31 1.125-.464 1.872-.464.725 0 1.339.155 1.84.464.501.31.912.715 1.232 1.216.32.501.55 1.072.688 1.712.139.64.208 1.29.208 1.952 0 .661-.064 1.312-.192 1.952-.128.64-.347 1.2-.656 1.68-.31.48-.715.87-1.216 1.168-.501.299-1.125.448-1.872.448zM72.768 6.848v22.336h4.544v-7.84h.064a5.36 5.36 0 0 0 2.128 1.84c.864.416 1.808.624 2.832.624 1.216 0 2.277-.235 3.184-.704a6.738 6.738 0 0 0 2.272-1.888 8.147 8.147 0 0 0 1.36-2.72 11.37 11.37 0 0 0 .448-3.2c0-1.173-.15-2.299-.448-3.376-.299-1.077-.757-2.021-1.376-2.832a6.937 6.937 0 0 0-2.336-1.952c-.939-.49-2.059-.736-3.36-.736-1.024 0-1.963.203-2.816.608-.853.405-1.557 1.056-2.112 1.952h-.064V6.848h-4.32zm19.36 5.088c.064-1.067.33-1.952.8-2.656a5.448 5.448 0 0 1 1.792-1.696 7.809 7.809 0 0 1 2.448-.912 13.918 13.918 0 0 1 2.736-.272c.832 0 1.675.059 2.528.176a7.733 7.733 0 0 1 2.336.688c.704.341 1.28.816 1.728 1.424.448.608.672 1.413.672 2.416v8.608c0 .747.043 1.461.128 2.144s.235 1.195.448 1.536h-4.608a6.52 6.52 0 0 1-.32-1.6 5.921 5.921 0 0 1-2.56 1.568c-.981.299-1.984.448-3.008.448-.79 0-1.525-.096-2.208-.288a5.057 5.057 0 0 1-1.792-.896 4.17 4.17 0 0 1-1.2-1.536c-.288-.619-.432-1.355-.432-2.208 0-.939.165-1.712.496-2.32a4.147 4.147 0 0 1 1.28-1.456 5.735 5.735 0 0 1 1.792-.816 19.13 19.13 0 0 1 2.032-.432 35.42 35.42 0 0 1 1.351-.185l.665-.071c.661-.064 1.248-.16 1.76-.288.512-.128.917-.315 1.216-.56.261-.215.4-.515.417-.901l-.001-.171c0-.49-.08-.88-.24-1.168a1.765 1.765 0 0 0-.64-.672 2.518 2.518 0 0 0-.928-.32 7.594 7.594 0 0 0-1.136-.08c-.896 0-1.6.192-2.112.576-.512.384-.81 1.024-.896 1.92h-4.544zm10.496 3.36c-.192.17-.432.304-.72.4a7.354 7.354 0 0 1-.928.24c-.22.043-.448.08-.683.114l-.357.046c-.363.043-.725.096-1.088.16-.341.064-.677.15-1.008.256a2.98 2.98 0 0 0-.864.432c-.245.181-.443.41-.592.688-.15.277-.224.63-.224 1.056 0 .405.075.747.224 1.024.15.277.352.496.608.656.256.16.555.272.896.336.341.064.693.096 1.056.096.896 0 1.59-.15 2.08-.448.49-.299.853-.656 1.088-1.072.235-.416.379-.837.432-1.264l.044-.398a6.71 6.71 0 0 0 .036-.626v-1.696zm8.064-8.448v16.544h4.544V14.72c0-1.685.277-2.896.832-3.632.555-.736 1.45-1.104 2.688-1.104 1.088 0 1.845.336 2.272 1.008.427.672.64 1.69.64 3.056v9.344h4.544V13.216c0-1.024-.09-1.957-.272-2.8-.181-.843-.496-1.557-.944-2.144-.448-.587-1.061-1.045-1.84-1.376-.779-.33-1.776-.496-2.992-.496-.96 0-1.899.219-2.816.656-.917.437-1.664 1.136-2.24 2.096h-.096V6.848h-4.32zm27.136 18.592l6.912-18.592h-4.704l-3.616 11.328h-.064l-3.744-11.328h-4.832l5.792 15.52c.128.32.192.661.192 1.024 0 .49-.144.939-.432 1.344-.288.405-.73.64-1.328.704-.448.021-.896.01-1.344-.032l-1.312-.128v3.744c.47.043.933.08 1.392.112.459.032.923.048 1.392.048 1.557 0 2.773-.288 3.648-.864.875-.576 1.557-1.536 2.048-2.88zM146.752.544v22.848h16.16v-4.224h-11.136V.544h-5.024zm22.528 14.592c0-.661.064-1.312.192-1.952a4.98 4.98 0 0 1 .656-1.696c.31-.49.72-.89 1.232-1.2.512-.31 1.152-.464 1.92-.464s1.413.155 1.936.464c.523.31.939.71 1.248 1.2.31.49.528 1.056.656 1.696a9.929 9.929 0 0 1 0 3.888 5.157 5.157 0 0 1-.656 1.696c-.31.501-.725.901-1.248 1.2-.523.299-1.168.448-1.936.448s-1.408-.15-1.92-.448a3.494 3.494 0 0 1-1.232-1.2 5.157 5.157 0 0 1-.656-1.696 9.69 9.69 0 0 1-.192-1.936zm-4.544 0c0 1.323.203 2.517.608 3.584.405 1.067.981 1.979 1.728 2.736a7.56 7.56 0 0 0 2.688 1.744c1.045.405 2.219.608 3.52.608 1.301 0 2.48-.203 3.536-.608a7.531 7.531 0 0 0 2.704-1.744c.747-.757 1.323-1.67 1.728-2.736.405-1.067.608-2.261.608-3.584s-.203-2.523-.608-3.6c-.405-1.077-.981-1.995-1.728-2.752-.747-.757-1.648-1.344-2.704-1.76-1.056-.416-2.235-.624-3.536-.624-1.301 0-2.475.208-3.52.624a7.743 7.743 0 0 0-2.688 1.76c-.747.757-1.323 1.675-1.728 2.752-.405 1.077-.608 2.277-.608 3.6zm27.776 4.352c-.704 0-1.29-.15-1.76-.448a3.552 3.552 0 0 1-1.136-1.152 4.8 4.8 0 0 1-.608-1.584 9.034 9.034 0 0 1-.176-1.776c0-.619.07-1.21.208-1.776a4.385 4.385 0 0 1 .672-1.504c.31-.437.693-.784 1.152-1.04.459-.256 1.008-.384 1.648-.384.747 0 1.365.139 1.856.416.49.277.885.65 1.184 1.12.299.47.512 1.008.64 1.616.128.608.192 1.253.192 1.936 0 .597-.08 1.168-.24 1.712-.16.544-.4 1.03-.72 1.456-.32.427-.725.768-1.216 1.024-.49.256-1.056.384-1.696.384zm8.192 2.848V6.848h-4.32v2.208h-.064c-.555-.96-1.243-1.643-2.064-2.048s-1.776-.608-2.864-.608c-1.152 0-2.17.224-3.056.672a6.572 6.572 0 0 0-2.224 1.808 8.071 8.071 0 0 0-1.36 2.624c-.31.992-.464 2.021-.464 3.088 0 1.13.133 2.203.4 3.216.267 1.013.688 1.899 1.264 2.656a6.072 6.072 0 0 0 2.208 1.792c.896.437 1.963.656 3.2.656a6.789 6.789 0 0 0 2.864-.624 4.499 4.499 0 0 0 2.096-1.936h.064v2.176c.021 1.173-.261 2.144-.848 2.912-.587.768-1.52 1.152-2.8 1.152-.81 0-1.525-.165-2.144-.496-.619-.33-1.035-.923-1.248-1.776h-4.512c.064.939.325 1.744.784 2.416a5.662 5.662 0 0 0 1.728 1.648 7.878 7.878 0 0 0 2.304.944c.843.203 1.67.304 2.48.304 1.899 0 3.413-.256 4.544-.768 1.13-.512 1.995-1.136 2.592-1.872.597-.736.987-1.53 1.168-2.384.181-.853.272-1.61.272-2.272zM212.384 6.4c1.301 0 2.48.208 3.536.624 1.056.416 1.957 1.003 2.704 1.76.747.757 1.323 1.675 1.728 2.752.405 1.077.608 2.277.608 3.6s-.203 2.517-.608 3.584c-.405 1.067-.981 1.979-1.728 2.736a7.531 7.531 0 0 1-2.704 1.744c-1.056.405-2.235.608-3.536.608-1.301 0-2.475-.203-3.52-.608a7.56 7.56 0 0 1-2.688-1.744c-.747-.757-1.323-1.67-1.728-2.736-.405-1.067-.608-2.261-.608-3.584s.203-2.523.608-3.6c.405-1.077.981-1.995 1.728-2.752a7.743 7.743 0 0 1 2.688-1.76c1.045-.416 2.219-.624 3.52-.624zm0 3.424c-.768 0-1.408.155-1.92.464-.512.31-.923.71-1.232 1.2a4.98 4.98 0 0 0-.656 1.696 9.929 9.929 0 0 0 0 3.888c.128.63.347 1.195.656 1.696.31.501.72.901 1.232 1.2.512.299 1.152.448 1.92.448s1.413-.15 1.936-.448a3.454 3.454 0 0 0 1.248-1.2c.31-.501.528-1.067.656-1.696a9.929 9.929 0 0 0 0-3.888 4.98 4.98 0 0 0-.656-1.696c-.31-.49-.725-.89-1.248-1.2-.523-.31-1.168-.464-1.936-.464z" fill="#FFF"/></svg>