<?xml version="1.0" encoding="UTF-8"?>
<svg width="46px" height="56px" viewBox="0 0 46 56" version="1.1" xmlns="http://www.w3.org/2000/svg" xmlns:xlink="http://www.w3.org/1999/xlink">
    <!-- Generator: sketchtool 58 (101010) - https://sketch.com -->
    <title>FA00C925-40F1-40D1-AD5D-7FFF17EA40EE</title>
    <desc>Created with sketchtool.</desc>
    <g id="Page-1" stroke="none" stroke-width="1" fill="none" fill-rule="evenodd">
        <g id="Desktop-HD" transform="translate(-1180.000000, -533.000000)" fill="#C4CCE8" fill-rule="nonzero">
            <g id="Tabs" transform="translate(80.000000, 110.000000)">
                <g id="Tabs-content" transform="translate(0.000000, 64.000000)">
                    <g id="Option" transform="translate(1022.000000, 313.000000)">
                        <path d="M111.1749,68.7290759 C111.1749,62.9689499 106.489202,58.2832515 100.729076,58.2832515 C94.9689499,58.2832515 90.2832515,62.9689499 90.2832515,68.7290759 C90.2832515,72.0328112 91.8728334,75.1782371 94.5355455,77.1428307 C95.5567708,77.8967467 95.7747706,79.335805 95.0208546,80.3570303 C94.2669385,81.3782556 92.8278802,81.5962554 91.8066549,80.8423394 C87.9734915,78.0148299 85.6857911,73.4861433 85.6857911,68.7290759 C85.6857911,60.4334044 92.434702,53.6844935 100.730374,53.6844935 C109.026045,53.6844935 115.774956,60.4334044 115.774956,68.7290759 C115.774956,73.5237742 113.458708,78.0732227 109.577533,80.898137 C109.168783,81.1952915 108.695152,81.3380295 108.226712,81.3380295 C107.516915,81.3380295 106.816202,81.0097321 106.365928,80.392066 C105.6185,79.3656502 105.845583,77.9278895 106.871999,77.1804616 C109.565854,75.2184632 111.1749,72.0587636 111.1749,68.7290759 Z M100.729076,46 C88.1966818,46 78,56.1953842 78,68.7290759 C78,72.7179535 79.0484753,76.6419501 81.0325331,80.0780425 C82.9556029,83.4090277 85.7143387,86.2196682 89.0089906,88.2063213 C89.3801094,88.4308092 89.7901566,88.5372138 90.1937158,88.5372138 C90.9735842,88.5372138 91.7326907,88.1414404 92.1647975,87.4251553 C92.8200945,86.3377514 92.4697377,84.9246455 91.3823339,84.2693484 C88.7507647,82.6836593 86.548707,80.4387802 85.013625,77.7799611 C83.4331263,75.0419872 82.5974604,71.9121327 82.5974604,68.7290759 C82.5974604,58.7322273 90.7309297,50.598758 100.727778,50.598758 C110.724627,50.598758 118.858096,58.7322273 118.858096,68.7290759 C118.858096,71.8978589 118.028918,75.0147372 116.461396,77.7449254 C114.93929,80.3959588 112.754101,82.636945 110.141996,84.2278246 C109.057188,84.8883122 108.713319,86.3027157 109.373807,87.3875243 C110.034294,88.4723329 111.448698,88.8162017 112.533506,88.1557142 C115.804801,86.1638706 118.542775,83.3558254 120.448976,80.0352211 C122.416165,76.6095097 123.456854,72.7010844 123.456854,68.7290759 C123.458152,56.1966818 113.26147,46 100.729076,46 Z M110.740198,98.9999073 C111.037353,99.904347 110.544258,100.878858 109.639818,101.176013 C109.460747,101.234405 109.280378,101.262953 109.101307,101.262953 C108.375938,101.262953 107.702475,100.802299 107.463713,100.075633 L102.45361,84.8091575 L102.45361,100.275466 C102.45361,101.227917 101.681527,102 100.729076,102 C99.7766243,102 99.0045417,101.227917 99.0045417,100.275466 L99.0045417,84.8091575 L93.9944388,100.075633 C93.7556771,100.802299 93.0809157,101.262953 92.3568449,101.262953 C92.1790713,101.262953 91.9974048,101.235703 91.8183335,101.176013 C90.9138938,100.878858 90.420799,99.904347 90.7179535,98.9999073 L98.3674113,75.6972843 C95.4646399,74.7110946 93.3702845,71.9601446 93.3702845,68.7290759 C93.3702845,64.6714246 96.6714246,61.3689869 100.730374,61.3689869 C104.788025,61.3689869 108.090463,64.670127 108.090463,68.7290759 C108.090463,71.9614422 105.996107,74.7110946 103.093336,75.6972843 L110.740198,98.9999073 Z M100.729076,71.4904069 C102.252479,71.4904069 103.491705,70.2511818 103.491705,68.7277783 C103.491705,67.2043748 102.252479,65.9651497 100.729076,65.9651497 C99.2056724,65.9651497 97.9664473,67.2043748 97.9664473,68.7277783 C97.9664473,70.2524794 99.2056724,71.4904069 100.729076,71.4904069 Z" id="Diffusion"></path>
                    </g>
                </g>
            </g>
        </g>
    </g>
</svg>