<svg width="46" height="56" xmlns="http://www.w3.org/2000/svg"><path d="M33.175 22.73c0-5.761-4.686-10.447-10.446-10.447S12.283 16.97 12.283 22.73c0 3.304 1.59 6.45 4.253 8.414a2.299 2.299 0 0 1-2.73 3.7 15.112 15.112 0 0 1-6.12-12.114c0-8.296 6.749-15.045 15.044-15.045 8.296 0 15.045 6.75 15.045 15.045 0 4.795-2.316 9.344-6.197 12.17a2.298 2.298 0 0 1-2.706-3.718 10.49 10.49 0 0 0 4.303-8.452zM22.729 0C10.197 0 0 10.195 0 22.73a22.72 22.72 0 0 0 3.033 11.348 22.87 22.87 0 0 0 7.976 8.128 2.297 2.297 0 0 0 3.156-.781 2.3 2.3 0 0 0-.783-3.156 18.25 18.25 0 0 1-6.368-6.489 18.125 18.125 0 0 1-2.417-9.05c0-9.998 8.134-18.131 18.13-18.131 9.998 0 18.131 8.133 18.131 18.13 0 3.169-.83 6.286-2.397 9.016a18.253 18.253 0 0 1-6.319 6.483 2.3 2.3 0 1 0 2.392 3.928 22.859 22.859 0 0 0 7.915-8.12 22.732 22.732 0 0 0 3.008-11.307C45.458 10.197 35.26 0 22.729 0zM32.74 53a1.725 1.725 0 0 1-3.276 1.076l-5.01-15.267v15.466a1.725 1.725 0 1 1-3.45 0V38.81l-5.01 15.267A1.725 1.725 0 1 1 12.718 53l7.65-23.303c-2.903-.986-4.998-3.737-4.998-6.968 0-4.058 3.301-7.36 7.36-7.36 4.058 0 7.36 3.301 7.36 7.36 0 3.232-2.094 5.982-4.997 6.968L32.74 53zM22.73 25.49a2.766 2.766 0 0 0 2.762-2.762 2.766 2.766 0 0 0-2.763-2.763 2.766 2.766 0 0 0-2.763 2.763 2.765 2.765 0 0 0 2.763 2.762z" fill="#C4CCE8"/></svg>