<svg width="100" height="87" xmlns="http://www.w3.org/2000/svg" style="fill:#C4CCE8"><defs><filter x="-19.3%" y="-21.2%" width="138.6%" height="142.4%" filterUnits="objectBoundingBox" id="a"><feOffset dy="4" in="SourceAlpha" result="shadowOffsetOuter1"/><feGaussianBlur stdDeviation="8" in="shadowOffsetOuter1" result="shadowBlurOuter1"/><feColorMatrix values="0 0 0 0 0 0 0 0 0 0 0 0 0 0 0 0 0 0 0.24 0" in="shadowBlurOuter1" result="shadowMatrixOuter1"/><feMerge><feMergeNode in="shadowMatrixOuter1"/><feMergeNode in="SourceGraphic"/></feMerge></filter></defs><path d="M132.694 63.717h-5.822v-15.35c0-1.349-1.113-2.367-2.462-2.367H69.425C68.075 46 67 47.018 67 48.367v24.215a2.422 2.422 0 0 0 2.425 2.436h5.822v15.355c0 1.35 1.113 2.516 2.462 2.516h26.683l7.887 8.358c.472.5 1.12.753 1.783.753a2.4 2.4 0 0 0 .89-.18 2.449 2.449 0 0 0 1.533-2.282v-6.649h16.208c1.349 0 2.425-1.165 2.425-2.516V66.158a2.425 2.425 0 0 0-2.424-2.441zm-60.807 6.415V50.887h50.098v19.245H96.67c-.674 0-1.31.283-1.77.774l-4.377 4.672v-2.995a2.467 2.467 0 0 0-2.463-2.45H71.887zm58.345 17.87H114.06c-1.349 0-2.462 1.022-2.462 2.373v2.994l-4.377-4.632c-.462-.49-1.096-.734-1.77-.734H80.133V75.021h5.498v6.727a2.434 2.434 0 0 0 2.43 2.444c.662 0 1.307-.273 1.78-.774l7.884-8.397h26.682c1.35 0 2.463-1.087 2.463-2.436v-3.978h3.36v19.395h.001zm-26.665-31.92c0-1.815 2.075-3.428 4.336-3.428 2.37 0 4.706 1.093 4.706 3.705 0 2.409-2.76 3.334-3.353 4.206-.444.648-.297 1.556-1.519 1.556-.796 0-1.186-.649-1.186-1.242 0-2.204 3.241-2.705 3.241-4.52 0-1-.666-1.593-1.778-1.593-2.37 0-1.445 2.446-3.241 2.446-.65 0-1.206-.39-1.206-1.13zm5.762 8.763c0 .833-.686 1.519-1.519 1.519a1.526 1.526 0 0 1-1.518-1.519c0-.833.685-1.519 1.518-1.519s1.519.685 1.519 1.52zm-6.47 14.453a1.934 1.934 0 1 1-3.87 0 1.935 1.935 0 1 1 3.87 0zm8.45 0a1.934 1.934 0 1 1-3.867 0 1.934 1.934 0 0 1 3.868 0zm8.452 0a1.934 1.934 0 1 1-3.869 0 1.935 1.935 0 1 1 3.87 0zm-16.257-13.137H81.357a1.223 1.223 0 0 1 0-2.444h22.145a1.223 1.223 0 0 1 .002 2.444z" filter="url(#a)" transform="translate(-51 -34)" /></svg>