<?xml version="1.0" encoding="UTF-8"?>
<svg width="55px" height="56px" viewBox="0 0 55 56" version="1.1" xmlns="http://www.w3.org/2000/svg" xmlns:xlink="http://www.w3.org/1999/xlink">
    <!-- Generator: sketchtool 58 (101010) - https://sketch.com -->
    <title>EF30AAC7-B1B6-42C7-96C8-ABC439502CB6</title>
    <desc>Created with sketchtool.</desc>
    <g id="Page-1" stroke="none" stroke-width="1" fill="none" fill-rule="evenodd">
        <g id="Desktop-HD" transform="translate(-951.000000, -740.000000)" fill="#C4CCE8" fill-rule="nonzero">
            <g id="Tabs" transform="translate(80.000000, 110.000000)">
                <g id="Tabs-content" transform="translate(0.000000, 64.000000)">
                    <g id="Option" transform="translate(797.000000, 520.000000)">
                        <path d="M93.1089005,72.2237347 C100.338569,72.2237347 106.220768,66.3415358 106.220768,59.1118674 C106.220768,51.882199 100.338569,46 93.1089005,46 C85.8792321,46 79.9970332,51.882199 79.9970332,59.1118674 C79.9970332,66.3415358 85.8792321,72.2237347 93.1089005,72.2237347 Z M93.1089005,50.3282723 C97.9514834,50.3282723 101.892496,54.2680628 101.892496,59.1118674 C101.892496,63.9556719 97.9527051,67.8954625 93.1089005,67.8954625 C88.265096,67.8954625 84.3253054,63.9544503 84.3253054,59.1118674 C84.3253054,54.2680628 88.2663176,50.3282723 93.1089005,50.3282723 Z M112.726003,71.2207679 C109.222339,71.2207679 105.989878,72.3984293 103.4,74.3762653 C101.356195,73.4111693 99.0986038,72.9005236 96.7542757,72.9005236 L89.4623037,72.9005236 C85.3233857,72.9005236 81.4422339,74.4849913 78.5322862,77.3631763 C75.6101222,80.2535777 74,84.1225131 74,88.2565445 L74,95.2675393 C74,97.2551483 75.5893543,98.8713787 77.5427574,98.8713787 L103.434206,98.8713787 C106.017976,100.900524 109.23822,102 112.724782,102 C121.211518,102 128.115009,95.095288 128.115009,86.6097731 C128.115009,78.1242583 121.21274,71.2207679 112.726003,71.2207679 Z M78.3307155,94.5455497 L78.3307155,88.2589878 C78.3307155,85.2904014 79.4839442,82.5136126 81.577836,80.4429319 C83.6717277,78.3722513 86.4717277,77.2312391 89.4635253,77.2312391 L96.7554974,77.2312391 C97.9282723,77.2312391 99.0705061,77.4095986 100.151658,77.7492147 C98.3790576,80.2572426 97.3357766,83.3150087 97.3357766,86.6122164 C97.3357766,89.5123909 98.1420593,92.2452007 99.5420593,94.5455497 L78.3307155,94.5455497 L78.3307155,94.5455497 Z M112.726003,97.674171 C106.626353,97.674171 101.664049,92.7118674 101.664049,86.6122164 C101.664049,80.5125654 106.626353,75.5502618 112.726003,75.5502618 C118.825654,75.5502618 123.787958,80.5125654 123.787958,86.6122164 C123.787958,92.7118674 118.825654,97.674171 112.726003,97.674171 Z M119.214136,81.6609075 C119.848168,82.2949389 119.848168,83.3223386 119.214136,83.95637 L111.608202,91.5623037 C111.291798,91.8787086 110.87644,92.0375218 110.45986,92.0375218 C110.044503,92.0375218 109.629145,91.8787086 109.311518,91.5623037 L106.237871,88.4886562 C105.603839,87.8546248 105.603839,86.8272251 106.237871,86.1931937 C106.871902,85.5591623 107.899302,85.5591623 108.533333,86.1931937 L110.45986,88.1197208 L116.918674,81.6609075 C117.552705,81.0268761 118.580105,81.0268761 119.214136,81.6609075 Z" id="Profile"></path>
                    </g>
                </g>
            </g>
        </g>
    </g>
</svg>