<svg width="55" height="56" xmlns="http://www.w3.org/2000/svg"><path d="M19.109 26.224c7.23 0 13.112-5.882 13.112-13.112S26.339 0 19.109 0 5.997 5.882 5.997 13.112s5.882 13.112 13.112 13.112zm0-21.896c4.842 0 8.783 3.94 8.783 8.784 0 4.844-3.94 8.783-8.783 8.783-4.844 0-8.784-3.94-8.784-8.783 0-4.844 3.941-8.784 8.784-8.784zm19.617 20.893a15.316 15.316 0 0 0-9.326 3.155 15.524 15.524 0 0 0-6.646-1.475h-7.292c-4.139 0-8.02 1.584-10.93 4.462C1.61 34.253 0 38.123 0 42.257v7.01c0 1.988 1.59 3.604 3.543 3.604h25.891c2.584 2.03 5.804 3.129 9.29 3.129 8.488 0 15.391-6.905 15.391-15.39 0-8.486-6.902-15.39-15.389-15.39zM4.331 48.546v-6.287c0-2.969 1.153-5.745 3.247-7.816 2.094-2.07 4.894-3.212 7.886-3.212h7.291c1.173 0 2.316.179 3.397.518a15.307 15.307 0 0 0-2.816 8.863c0 2.9.806 5.633 2.206 7.934H4.331zm34.395 3.128c-6.1 0-11.062-4.962-11.062-11.062S32.626 29.55 38.726 29.55s11.062 4.963 11.062 11.062c0 6.1-4.962 11.062-11.062 11.062zm6.488-16.013a1.623 1.623 0 0 1 0 2.295l-7.606 7.606a1.623 1.623 0 0 1-2.297 0l-3.073-3.073a1.623 1.623 0 1 1 2.295-2.296l1.927 1.927 6.459-6.46a1.623 1.623 0 0 1 2.295 0z" fill="#C4CCE8"/></svg>