<?xml version="1.0" encoding="UTF-8"?>
<svg width="63px" height="56px" viewBox="0 0 63 56" version="1.1" xmlns="http://www.w3.org/2000/svg" xmlns:xlink="http://www.w3.org/1999/xlink">
    <!-- Generator: sketchtool 58 (101010) - https://sketch.com -->
    <title>5DEC85BF-5303-4FE9-BCAA-45FF097171CC</title>
    <desc>Created with sketchtool.</desc>
    <g id="Page-1" stroke="none" stroke-width="1" fill="none" fill-rule="evenodd">
        <g id="Desktop-HD" transform="translate(-1172.000000, -740.000000)" fill="#C4CCE8" fill-rule="nonzero">
            <g id="Tabs" transform="translate(80.000000, 110.000000)">
                <g id="Tabs-content" transform="translate(0.000000, 64.000000)">
                    <g id="Option" transform="translate(1022.000000, 520.000000)">
                        <path d="M117.191632,73.1043297 L117.411134,73.1111994 L117.411134,73.1111994 L117.632598,73.1318083 L122.016083,73.685305 C123.531015,73.8762418 124.740851,75.0234702 125.022758,76.5099469 L125.053118,76.6974788 L125.206213,77.8384934 L125.465296,78.0347688 L126.606311,77.8751314 C126.769874,77.8515784 126.932128,77.8411104 127.093074,77.8411104 C128.421516,77.8411104 129.649076,78.5971343 130.238844,79.8051223 L130.322459,79.9896722 L132.03529,84.0630418 C132.625915,85.4687556 132.239532,87.0859744 131.09841,88.0739859 L130.945307,88.1992196 L130.03328,88.9031941 L129.992717,89.2250859 L130.700617,90.1331869 C131.636822,91.3334823 131.688301,92.9923029 130.849329,94.2427764 L130.729404,94.410683 L128.057441,97.9305559 C127.378328,98.8242634 126.335451,99.317569 125.262478,99.317569 C124.889555,99.317569 124.513906,99.2585046 124.148403,99.1358325 L123.930422,99.0545599 L122.865301,98.6162114 L122.565654,98.7418277 L122.133848,99.8095661 C121.592128,101.145548 120.298018,102 118.884835,102 L118.665334,101.99313 L118.665334,101.99313 L118.44387,101.972521 L114.060385,101.419025 C112.545452,101.228088 111.335617,100.08086 111.05371,98.5943828 L111.02335,98.4068509 L110.870255,97.2658364 L110.611171,97.069561 L109.470157,97.2291983 C109.306594,97.2527514 109.144339,97.2632194 108.983393,97.2632194 C107.654951,97.2632194 106.426205,96.5071955 105.835193,95.2992075 L105.751391,95.1146576 L104.038561,91.0412879 C103.447935,89.6355741 103.834319,88.0183554 104.97544,87.0303439 L105.128544,86.9051102 L106.04057,86.2011356 L106.081134,85.8792439 L105.373234,84.9711428 C104.43828,83.7708474 104.386855,82.1120268 105.22583,80.8615534 L105.345755,80.6936468 L108.017718,77.1737739 C108.696831,76.2800664 109.739708,75.7867608 110.812681,75.7867608 C111.185604,75.7867608 111.561253,75.8458251 111.926756,75.9684973 L112.144737,76.0497698 L113.209858,76.4881183 L113.509505,76.362502 L113.94262,75.2947637 C114.48434,73.9587822 115.778449,73.1043297 117.191632,73.1043297 Z M117.194249,76.6098091 L116.214181,79.029231 L113.226868,80.2853938 L110.812681,79.2935486 L108.140718,82.8134215 L109.746251,84.8716966 L109.340615,88.0866883 L107.274489,89.6817534 L108.987319,93.755123 L111.571612,93.3939762 L114.153289,95.3528051 L114.50135,97.9397154 L118.884835,98.4932121 L119.864904,96.0737902 L122.852216,94.8176274 L125.266404,95.8094726 L127.938367,92.2895997 L126.332834,90.2313246 L126.73847,87.0163329 L128.804596,85.4212678 L127.091766,81.3478982 L124.507472,81.709045 L121.925796,79.7502161 L121.577734,77.1633058 L117.194249,76.6098091 Z M116.000895,82.7035073 C118.674166,81.5795032 121.762233,82.8409001 122.884929,85.5141716 C124.008933,88.187443 122.748844,91.2768185 120.075573,92.4008225 L120.075573,92.4008225 L119.792074,92.5102484 C119.221307,92.7124064 118.629116,92.8143094 118.036925,92.8143094 C117.364355,92.8143094 116.691784,92.6834591 116.050618,92.4217585 C114.751274,91.8905063 113.734568,90.8855761 113.19023,89.5901582 C112.645893,88.2947403 112.638042,86.8658551 113.169294,85.5652032 C113.700547,84.2645513 114.705477,83.2478445 116.000895,82.7035073 Z M118.036925,85.7994252 C117.810554,85.7994252 117.581566,85.8439143 117.360429,85.936818 C116.929932,86.1173914 116.594955,86.4562937 116.418307,86.8894081 C116.240351,87.3225226 116.242968,87.7975092 116.42485,88.2293151 C116.605423,88.6611211 116.944325,88.9960979 117.37744,89.1727458 C117.810554,89.3507022 118.286849,89.3480851 118.717347,89.1662032 L118.717347,89.1662032 L118.853888,89.1017924 C119.649146,88.6840906 120.007531,87.7165886 119.654235,86.8723976 C119.372907,86.2024441 118.721272,85.7994252 118.036925,85.7994252 Z M92.3994273,46 C93.7108743,46 94.9077718,46.7321728 95.5088341,47.8857583 L95.5987169,48.0713601 L96.6703808,50.459378 L97.5719394,50.893801 L100.107818,50.2421665 C100.398306,50.1688903 100.690102,50.1322523 100.98059,50.1322523 C101.96249,50.1322523 102.912475,50.5448785 103.583728,51.2882136 L103.723212,51.4525317 L106.867544,55.3950511 C107.683224,56.418989 107.857686,57.8046393 107.336414,58.9923738 L107.243085,59.1884011 L106.044496,61.5162278 L106.266941,62.492371 L108.356621,64.069117 C109.404535,64.8584714 109.918672,66.1638895 109.703825,67.4468701 L109.663815,67.649181 L108.541119,72.566535 C108.248996,73.8456621 107.269575,74.8496339 106.01122,75.1790619 L105.810274,75.225413 L103.242991,75.7396546 L102.618835,76.5221394 L102.689494,79.1391453 C102.725544,80.4505923 102.025877,81.6663846 100.888915,82.2985052 L100.705804,82.3933921 L96.1613732,84.581209 C95.6759186,84.8141225 95.156443,84.9279622 94.6395843,84.9279622 C93.9008749,84.9279622 93.1697354,84.6954597 92.5582388,84.2442178 L92.3784912,84.1022969 L90.3764817,82.4156366 L89.375477,82.4156366 L87.3734675,84.1022969 C86.7270671,84.6466341 85.9236463,84.9279622 85.1123744,84.9279622 C84.6693527,84.9279622 84.223447,84.8443249 83.8002016,84.6737541 L83.5905855,84.581209 L79.0461548,82.3933921 C77.8639879,81.8240624 77.1045917,80.6453761 77.06302,79.3453498 L77.0624644,79.1391453 L77.1331236,76.5221394 L76.5089677,75.7396546 L73.9416849,75.2267215 C72.6550994,74.9694044 71.6259553,74.0165231 71.2626161,72.7674661 L71.2108393,72.5678435 L70.0881438,67.6504895 C69.7960205,66.3713625 70.2431556,65.0426366 71.2343423,64.1994476 L71.3953382,64.0704255 L73.4850174,62.4936795 L73.7074629,61.5175363 L72.5088742,59.1897096 C71.9088912,58.0256929 72.0100192,56.6314957 72.7544042,55.5700837 L72.8844145,55.3963596 L76.0287471,51.4538402 C76.7039346,50.6072388 77.7193329,50.1335608 78.7713692,50.1335608 C78.989235,50.1335608 79.2085728,50.1534337 79.4266225,50.1948355 L79.6441407,50.243475 L82.1800194,50.8951095 L83.0855034,50.459378 L84.1571673,48.0713601 C84.6941769,46.8742762 85.8511716,46.0822492 87.1502313,46.0060392 L87.356457,46 L92.3994273,46 Z M92.3968103,49.5080964 L87.35384,49.5080964 L85.7574664,53.0646073 L82.5490172,54.6099493 L78.7726777,53.6403486 L75.6283452,57.582868 L77.4131432,61.0490922 L76.6201904,64.521859 L73.5072619,66.8693133 L74.6299575,71.7866673 L78.4520945,72.5521415 L80.672624,75.3366357 L80.5679438,79.2333575 L85.1123744,81.4211744 L88.0944526,78.9088488 L91.6548891,78.9088488 L94.6369673,81.4211744 L99.181398,79.2333575 L99.0767177,75.3366357 L101.297247,72.5521415 L105.119384,71.7866673 L106.24208,66.8693133 L103.13046,64.521859 L102.337507,61.0490922 L104.122305,57.582868 L100.977972,53.6403486 L97.201633,54.6099493 L93.9931838,53.0646073 L92.3968103,49.5080964 Z M89.8753251,57.5462299 C94.4027453,57.5462299 98.086181,61.2296656 98.086181,65.7570858 C98.086181,70.2845059 94.4027453,73.9679417 89.8753251,73.9679417 C85.347905,73.9679417 81.6644692,70.2845059 81.6644692,65.7570858 C81.6644692,61.2296656 85.347905,57.5462299 89.8753251,57.5462299 Z M89.8753251,61.0530177 C87.2818723,61.0530177 85.1725656,63.1623245 85.1712571,65.7557773 C85.1712571,68.3492301 87.2805638,70.4598453 89.8753251,70.4598453 C92.4700864,70.4598453 94.5793932,68.3492301 94.5793932,65.7557773 C94.5793932,63.1623245 92.4687779,61.0530177 89.8753251,61.0530177 Z" id="Settings"></path>
                    </g>
                </g>
            </g>
        </g>
    </g>
</svg>