<svg width="0" height="0" class="hidden">
  <defs>
    <filter x="-19.3%" y="-21.2%" width="138.6%" height="142.4%" filterUnits="objectBoundingBox" id="shadow">
      <feOffset dy="4" in="SourceAlpha" result="shadowOffsetOuter1"></feOffset>
      <feGaussianBlur stdDeviation="8" in="shadowOffsetOuter1" result="shadowBlurOuter1"></feGaussianBlur>
      <feColorMatrix values="0 0 0 0 0 0 0 0 0 0 0 0 0 0 0 0 0 0 0.24 0" in="shadowBlurOuter1" result="shadowMatrixOuter1"></feColorMatrix>
      <feMerge>
        <feMergeNode in="shadowMatrixOuter1"></feMergeNode>
        <feMergeNode in="SourceGraphic"></feMergeNode>
      </feMerge>
    </filter>
  </defs>
  <symbol xmlns="http://www.w3.org/2000/svg" viewBox="0 0 61 56" id="calendar">
    <path d="M21.081 30.141a.824.824 0 01-.824.824h-9.223a.824.824 0 01-.824-.824v-3.788c0-.455.369-.824.824-.824h9.223c.455 0 .824.369.824.824v3.788zm14.659-3.788a.824.824 0 00-.824-.824h-9.222a.824.824 0 00-.824.824v3.788c0 .455.369.824.824.824h9.222a.824.824 0 00.824-.824v-3.788zm-14.659 8.07a.824.824 0 00-.824-.824h-9.223a.824.824 0 00-.824.824v3.789c0 .455.369.824.824.824h9.223a.824.824 0 00.824-.824v-3.789zm14.659 0a.824.824 0 00-.824-.824h-9.222a.824.824 0 00-.824.824v3.789c0 .455.369.824.824.824h9.222a.824.824 0 00.824-.824v-3.789zm14.658 0a.824.824 0 00-.824-.824h-9.223a.824.824 0 00-.824.824v3.789c0 .455.369.824.824.824h9.223a.824.824 0 00.824-.824v-3.789zM35.74 42.658a.824.824 0 00-.824-.824h-9.222a.824.824 0 00-.824.824v3.788c0 .455.369.824.824.824h9.222a.824.824 0 00.824-.824v-3.788zm14.658 0a.824.824 0 00-.824-.824h-9.223a.824.824 0 00-.824.824v3.788c0 .455.369.824.824.824h9.223a.824.824 0 00.824-.824v-3.788zM60.61 7.248v46.116A2.636 2.636 0 0157.974 56H2.636A2.636 2.636 0 010 53.364V7.248a2.636 2.636 0 012.636-2.636h10.376V2.636a2.636 2.636 0 015.271 0v1.976H42.33V2.636a2.636 2.636 0 015.272 0v1.976h10.376a2.634 2.634 0 012.633 2.636zm-5.272 14.163H5.271v29.316h50.067V21.411zm0-11.529h-7.74v1.977a2.636 2.636 0 01-5.272 0V9.882H18.282v1.977a2.636 2.636 0 01-5.272 0V9.882H5.271v7.576h50.067V9.882z"></path>
  </symbol>
  <symbol xmlns="http://www.w3.org/2000/svg" viewBox="12 10 75 57" id="messages">
    <path d="M132.694 63.717h-5.822v-15.35c0-1.349-1.113-2.367-2.462-2.367H69.425C68.075 46 67 47.018 67 48.367v24.215a2.422 2.422 0 002.425 2.436h5.822v15.355c0 1.35 1.113 2.516 2.462 2.516h26.683l7.887 8.358c.472.5 1.12.753 1.783.753a2.4 2.4 0 00.89-.18 2.449 2.449 0 001.533-2.282v-6.649h16.208c1.349 0 2.425-1.165 2.425-2.516V66.158a2.425 2.425 0 00-2.424-2.441zm-60.807 6.415V50.887h50.098v19.245H96.67c-.674 0-1.31.283-1.77.774l-4.377 4.672v-2.995a2.467 2.467 0 00-2.463-2.45H71.887zm58.345 17.87H114.06c-1.349 0-2.462 1.022-2.462 2.373v2.994l-4.377-4.632c-.462-.49-1.096-.734-1.77-.734H80.133V75.021h5.498v6.727a2.434 2.434 0 002.43 2.444c.662 0 1.307-.273 1.78-.774l7.884-8.397h26.682c1.35 0 2.463-1.087 2.463-2.436v-3.978h3.36v19.395h.001zm-26.665-31.92c0-1.815 2.075-3.428 4.336-3.428 2.37 0 4.706 1.093 4.706 3.705 0 2.409-2.76 3.334-3.353 4.206-.444.648-.297 1.556-1.519 1.556-.796 0-1.186-.649-1.186-1.242 0-2.204 3.241-2.705 3.241-4.52 0-1-.666-1.593-1.778-1.593-2.37 0-1.445 2.446-3.241 2.446-.65 0-1.206-.39-1.206-1.13zm5.762 8.763c0 .833-.686 1.519-1.519 1.519a1.526 1.526 0 01-1.518-1.519c0-.833.685-1.519 1.518-1.519s1.519.685 1.519 1.52zm-6.47 14.453a1.934 1.934 0 11-3.87 0 1.935 1.935 0 113.87 0zm8.45 0a1.934 1.934 0 11-3.867 0 1.934 1.934 0 013.868 0zm8.452 0a1.934 1.934 0 11-3.869 0 1.935 1.935 0 113.87 0zm-16.257-13.137H81.357a1.223 1.223 0 010-2.444h22.145a1.223 1.223 0 01.002 2.444z" transform="translate(-51 -34)"></path>
  </symbol>
  <symbol xmlns="http://www.w3.org/2000/svg" viewBox="0 0 56 56" id="stats">
    <path d="M53.402 30.276c1.067 0 1.933.865 1.933 1.933C55.335 45.327 44.662 56 31.544 56a1.933 1.933 0 01-1.933-1.933V32.209c0-1.068.865-1.933 1.933-1.933zm-2.026 3.866H33.48V52.04c9.445-.915 16.983-8.451 17.897-17.898zM23.791 0c13.118 0 23.791 10.673 23.79 23.792a1.933 1.933 0 01-1.934 1.934H25.724v19.923a1.933 1.933 0 01-1.933 1.933C10.673 47.582 0 36.909 0 23.791S10.673 0 23.791 0zm0 3.868c-10.986 0-19.923 8.937-19.923 19.923 0 10.334 7.908 18.856 17.99 19.83v-19.83c0-1.068.865-1.933 1.933-1.933h19.83c-.974-10.082-9.496-17.99-19.83-17.99z"></path>
  </symbol>
  <symbol xmlns="http://www.w3.org/2000/svg" viewBox="0 0 63 56" id="settings">
    <path d="M47.192 27.104l.22.007.22.02 4.384.554a3.507 3.507 0 013.007 2.825l.03.187.153 1.141.26.197 1.14-.16a3.503 3.503 0 013.633 1.93l.083.185 1.713 4.073a3.509 3.509 0 01-.937 4.011l-.153.125-.912.704-.04.322.708.908c.936 1.2.987 2.86.148 4.11l-.12.168-2.672 3.52a3.509 3.509 0 01-3.909 1.205l-.218-.081-1.065-.439-.3.126-.431 1.068a3.508 3.508 0 01-3.25 2.19l-.219-.007-.221-.02-4.384-.554a3.507 3.507 0 01-3.006-2.825l-.03-.187-.154-1.141-.259-.196-1.14.16a3.508 3.508 0 01-3.635-1.93l-.085-.185-1.712-4.074a3.509 3.509 0 01.936-4.01l.154-.126.912-.704.04-.322-.708-.908a3.51 3.51 0 01-.147-4.11l.12-.167 2.672-3.52a3.509 3.509 0 013.909-1.206l.218.082 1.065.438.3-.125.433-1.068a3.508 3.508 0 013.249-2.19zm.002 3.506l-.98 2.42-2.987 1.255-2.414-.991-2.672 3.52 1.605 2.058-.405 3.215-2.067 1.595 1.713 4.073 2.585-.361 2.581 1.959.348 2.587 4.384.553.98-2.42 2.987-1.255 2.414.991 2.672-3.52-1.605-2.058.405-3.215 2.067-1.595-1.713-4.073-2.585.361-2.581-1.959-.348-2.587-4.384-.553zm-1.193 6.094a5.262 5.262 0 016.884 2.81 5.265 5.265 0 01-2.81 6.887l-.283.11a5.252 5.252 0 01-1.755.303c-.673 0-1.345-.13-1.986-.392a5.228 5.228 0 01-2.86-2.832 5.222 5.222 0 01-.022-4.025 5.226 5.226 0 012.832-2.861zm2.036 3.095c-.226 0-.455.045-.677.138-.43.18-.765.52-.942.952a1.73 1.73 0 00.007 1.34c.18.432.52.767.952.944.434.178.91.175 1.34-.007l.137-.064a1.756 1.756 0 00.8-2.23 1.754 1.754 0 00-1.617-1.073zM22.399 0c1.312 0 2.509.732 3.11 1.886l.09.185L26.67 4.46l.902.435 2.536-.652a3.508 3.508 0 013.476 1.046l.14.165 3.144 3.942a3.51 3.51 0 01.468 3.597l-.093.196-1.199 2.328.223.976 2.09 1.577a3.506 3.506 0 011.347 3.378l-.04.202-1.123 4.918a3.508 3.508 0 01-2.53 2.612l-.2.046-2.568.515-.624.782.07 2.617a3.506 3.506 0 01-1.8 3.16l-.183.094-4.545 2.188a3.513 3.513 0 01-3.603-.337l-.18-.142-2.002-1.686h-1l-2.003 1.686a3.507 3.507 0 01-3.573.572l-.21-.093-4.544-2.188a3.508 3.508 0 01-1.983-3.048v-.206l.07-2.617-.624-.782-2.567-.513a3.508 3.508 0 01-2.68-2.46l-.051-.2L.088 21.65a3.506 3.506 0 011.146-3.45l.161-.13 2.09-1.576.222-.976L2.51 13.19a3.507 3.507 0 01.245-3.62l.13-.174L6.03 5.454a3.508 3.508 0 013.398-1.26l.217.05 2.536.651.906-.436 1.071-2.388A3.506 3.506 0 0117.15.006L17.356 0H22.4zm-.002 3.508h-5.043l-1.597 3.557L12.55 8.61l-3.776-.97-3.145 3.943 1.785 3.466-.793 3.473-3.113 2.347 1.123 4.918 3.822.765 2.22 2.785-.104 3.896 4.544 2.188 2.982-2.512h3.56l2.983 2.512 4.544-2.188-.104-3.896 2.22-2.785 3.822-.765 1.123-4.918-3.112-2.347-.792-3.473 1.784-3.466-3.144-3.943-3.776.97-3.209-1.545-1.596-3.557zm-2.522 8.038c4.528 0 8.211 3.684 8.211 8.211 0 4.528-3.683 8.21-8.21 8.21-4.528 0-8.212-3.682-8.212-8.21 0-4.527 3.684-8.21 8.211-8.21zm0 3.507a4.71 4.71 0 00-4.704 4.703 4.709 4.709 0 004.704 4.704 4.709 4.709 0 004.704-4.704 4.709 4.709 0 00-4.704-4.703z"></path>
  </symbol>
  <symbol xmlns="http://www.w3.org/2000/svg" viewBox="0 0 46 56" id="diffusion">
    <path d="M33.175 22.73c0-5.761-4.686-10.447-10.446-10.447S12.283 16.97 12.283 22.73c0 3.304 1.59 6.45 4.253 8.414a2.299 2.299 0 01-2.73 3.7 15.112 15.112 0 01-6.12-12.114c0-8.296 6.749-15.045 15.044-15.045 8.296 0 15.045 6.75 15.045 15.045 0 4.795-2.316 9.344-6.197 12.17a2.298 2.298 0 01-2.706-3.718 10.49 10.49 0 004.303-8.452zM22.729 0C10.197 0 0 10.195 0 22.73a22.72 22.72 0 003.033 11.348 22.87 22.87 0 007.976 8.128 2.297 2.297 0 003.156-.781 2.3 2.3 0 00-.783-3.156 18.25 18.25 0 01-6.368-6.489 18.125 18.125 0 01-2.417-9.05c0-9.998 8.134-18.131 18.13-18.131 9.998 0 18.131 8.133 18.131 18.13 0 3.169-.83 6.286-2.397 9.016a18.253 18.253 0 01-6.319 6.483 2.3 2.3 0 102.392 3.928 22.859 22.859 0 007.915-8.12 22.732 22.732 0 003.008-11.307C45.458 10.197 35.26 0 22.729 0zM32.74 53a1.725 1.725 0 01-3.276 1.076l-5.01-15.267v15.466a1.725 1.725 0 11-3.45 0V38.81l-5.01 15.267A1.725 1.725 0 1112.718 53l7.65-23.303c-2.903-.986-4.998-3.737-4.998-6.968 0-4.058 3.301-7.36 7.36-7.36 4.058 0 7.36 3.301 7.36 7.36 0 3.232-2.094 5.982-4.997 6.968L32.74 53zM22.73 25.49a2.766 2.766 0 002.762-2.762 2.766 2.766 0 00-2.763-2.763 2.766 2.766 0 00-2.763 2.763 2.765 2.765 0 002.763 2.762z"></path>
  </symbol>
  <symbol xmlns="http://www.w3.org/2000/svg" viewBox="0 0 55 56" id="profile">
    <path d="M19.109 26.224c7.23 0 13.112-5.882 13.112-13.112S26.339 0 19.109 0 5.997 5.882 5.997 13.112s5.882 13.112 13.112 13.112zm0-21.896c4.842 0 8.783 3.94 8.783 8.784 0 4.844-3.94 8.783-8.783 8.783-4.844 0-8.784-3.94-8.784-8.783 0-4.844 3.941-8.784 8.784-8.784zm19.617 20.893a15.316 15.316 0 00-9.326 3.155 15.524 15.524 0 00-6.646-1.475h-7.292c-4.139 0-8.02 1.584-10.93 4.462C1.61 34.253 0 38.123 0 42.257v7.01c0 1.988 1.59 3.604 3.543 3.604h25.891c2.584 2.03 5.804 3.129 9.29 3.129 8.488 0 15.391-6.905 15.391-15.39 0-8.486-6.902-15.39-15.389-15.39zM4.331 48.546v-6.287c0-2.969 1.153-5.745 3.247-7.816 2.094-2.07 4.894-3.212 7.886-3.212h7.291c1.173 0 2.316.179 3.397.518a15.307 15.307 0 00-2.816 8.863c0 2.9.806 5.633 2.206 7.934H4.331zm34.395 3.128c-6.1 0-11.062-4.962-11.062-11.062S32.626 29.55 38.726 29.55s11.062 4.963 11.062 11.062c0 6.1-4.962 11.062-11.062 11.062zm6.488-16.013a1.623 1.623 0 010 2.295l-7.606 7.606a1.623 1.623 0 01-2.297 0l-3.073-3.073a1.623 1.623 0 112.295-2.296l1.927 1.927 6.459-6.46a1.623 1.623 0 012.295 0z"></path>
  </symbol>
</svg>

