<?xml version="1.0" encoding="UTF-8"?>
<svg width="56px" height="56px" viewBox="0 0 56 56" version="1.1" xmlns="http://www.w3.org/2000/svg" xmlns:xlink="http://www.w3.org/1999/xlink">
    <!-- Generator: sketchtool 58 (101010) - https://sketch.com -->
    <title>65B4272F-C47F-4049-8D6A-1BE6C5CEE8AF</title>
    <desc>Created with sketchtool.</desc>
    <g id="Page-1" stroke="none" stroke-width="1" fill="none" fill-rule="evenodd">
        <g id="Desktop-HD" transform="translate(-951.000000, -533.000000)" fill="#C4CCE8" fill-rule="nonzero">
            <g id="Tabs" transform="translate(80.000000, 110.000000)">
                <g id="Tabs-content" transform="translate(0.000000, 64.000000)">
                    <g id="Option" transform="translate(797.000000, 313.000000)">
                        <path d="M127.401757,76.275807 C128.46933,76.275807 129.334931,77.1414071 129.334931,78.2089806 C129.334931,91.3271505 118.662081,102 105.543911,102 C104.476338,102 103.610738,101.1344 103.610738,100.066826 L103.610738,100.066826 L103.610738,78.2089806 C103.610738,77.1414071 104.476338,76.275807 105.543911,76.275807 L105.543911,76.275807 Z M125.376253,80.1421542 L107.478527,80.1421542 L107.478527,98.0398794 C116.923667,97.1252286 124.461602,89.5887369 125.376253,80.1421542 L125.376253,80.1421542 Z M97.7910194,46 C110.909189,46 121.582039,56.6728495 121.580596,69.7924621 C121.580596,70.8600356 120.714996,71.7256357 119.647423,71.7256357 L119.647423,71.7256357 L99.724193,71.7256357 L99.724193,91.6488652 C99.724193,92.7164387 98.8585929,93.5820388 97.7910194,93.5820388 C84.6728495,93.5820388 74,82.9091893 74,69.7910194 C74,56.6728495 84.6728495,46 97.7910194,46 Z M97.7910194,49.8677899 C86.8051112,49.8677899 77.8677899,58.8051112 77.8677899,69.7910194 C77.8677899,80.1248422 85.7764897,88.6466754 95.8578458,89.6219182 L95.8578458,89.6219182 L95.8578458,69.7910194 C95.8578458,68.7234459 96.7234459,67.8578458 97.7910194,67.8578458 L97.7910194,67.8578458 L117.621918,67.8578458 C116.646675,57.7764897 108.124842,49.8677899 97.7910194,49.8677899 Z" id="Stats"></path>
                    </g>
                </g>
            </g>
        </g>
    </g>
</svg>