<svg width="56" height="56" xmlns="http://www.w3.org/2000/svg"><path d="M53.402 30.276c1.067 0 1.933.865 1.933 1.933C55.335 45.327 44.662 56 31.544 56a1.933 1.933 0 0 1-1.933-1.933V32.209c0-1.068.865-1.933 1.933-1.933zm-2.026 3.866H33.48V52.04c9.445-.915 16.983-8.451 17.897-17.898zM23.791 0c13.118 0 23.791 10.673 23.79 23.792a1.933 1.933 0 0 1-1.934 1.934H25.724v19.923a1.933 1.933 0 0 1-1.933 1.933C10.673 47.582 0 36.909 0 23.791S10.673 0 23.791 0zm0 3.868c-10.986 0-19.923 8.937-19.923 19.923 0 10.334 7.908 18.856 17.99 19.83v-19.83c0-1.068.865-1.933 1.933-1.933h19.83c-.974-10.082-9.496-17.99-19.83-17.99z" fill="#C4CCE8"/></svg>