<svg width="61" height="56" xmlns="http://www.w3.org/2000/svg"><path d="M21.081 30.141a.824.824 0 0 1-.824.824h-9.223a.824.824 0 0 1-.824-.824v-3.788c0-.455.369-.824.824-.824h9.223c.455 0 .824.369.824.824v3.788zm14.659-3.788a.824.824 0 0 0-.824-.824h-9.222a.824.824 0 0 0-.824.824v3.788c0 .455.369.824.824.824h9.222a.824.824 0 0 0 .824-.824v-3.788zm-14.659 8.07a.824.824 0 0 0-.824-.824h-9.223a.824.824 0 0 0-.824.824v3.789c0 .455.369.824.824.824h9.223a.824.824 0 0 0 .824-.824v-3.789zm14.659 0a.824.824 0 0 0-.824-.824h-9.222a.824.824 0 0 0-.824.824v3.789c0 .455.369.824.824.824h9.222a.824.824 0 0 0 .824-.824v-3.789zm14.658 0a.824.824 0 0 0-.824-.824h-9.223a.824.824 0 0 0-.824.824v3.789c0 .455.369.824.824.824h9.223a.824.824 0 0 0 .824-.824v-3.789zM35.74 42.658a.824.824 0 0 0-.824-.824h-9.222a.824.824 0 0 0-.824.824v3.788c0 .455.369.824.824.824h9.222a.824.824 0 0 0 .824-.824v-3.788zm14.658 0a.824.824 0 0 0-.824-.824h-9.223a.824.824 0 0 0-.824.824v3.788c0 .455.369.824.824.824h9.223a.824.824 0 0 0 .824-.824v-3.788zM60.61 7.248v46.116A2.636 2.636 0 0 1 57.974 56H2.636A2.636 2.636 0 0 1 0 53.364V7.248a2.636 2.636 0 0 1 2.636-2.636h10.376V2.636a2.636 2.636 0 0 1 5.271 0v1.976H42.33V2.636a2.636 2.636 0 0 1 5.272 0v1.976h10.376a2.634 2.634 0 0 1 2.633 2.636zm-5.272 14.163H5.271v29.316h50.067V21.411zm0-11.529h-7.74v1.977a2.636 2.636 0 0 1-5.272 0V9.882H18.282v1.977a2.636 2.636 0 0 1-5.272 0V9.882H5.271v7.576h50.067V9.882z" fill="#C4CCE8"/></svg>