<svg width="63" height="56" xmlns="http://www.w3.org/2000/svg"><path d="M47.192 27.104l.22.007.22.02 4.384.554a3.507 3.507 0 0 1 3.007 2.825l.03.187.153 1.141.26.197 1.14-.16a3.503 3.503 0 0 1 3.633 1.93l.083.185 1.713 4.073a3.509 3.509 0 0 1-.937 4.011l-.153.125-.912.704-.04.322.708.908c.936 1.2.987 2.86.148 4.11l-.12.168-2.672 3.52a3.509 3.509 0 0 1-3.909 1.205l-.218-.081-1.065-.439-.3.126-.431 1.068a3.508 3.508 0 0 1-3.25 2.19l-.219-.007-.221-.02-4.384-.554a3.507 3.507 0 0 1-3.006-2.825l-.03-.187-.154-1.141-.259-.196-1.14.16a3.508 3.508 0 0 1-3.635-1.93l-.085-.185-1.712-4.074a3.509 3.509 0 0 1 .936-4.01l.154-.126.912-.704.04-.322-.708-.908a3.51 3.51 0 0 1-.147-4.11l.12-.167 2.672-3.52a3.509 3.509 0 0 1 3.909-1.206l.218.082 1.065.438.3-.125.433-1.068a3.508 3.508 0 0 1 3.249-2.19zm.002 3.506l-.98 2.42-2.987 1.255-2.414-.991-2.672 3.52 1.605 2.058-.405 3.215-2.067 1.595 1.713 4.073 2.585-.361 2.581 1.959.348 2.587 4.384.553.98-2.42 2.987-1.255 2.414.991 2.672-3.52-1.605-2.058.405-3.215 2.067-1.595-1.713-4.073-2.585.361-2.581-1.959-.348-2.587-4.384-.553zm-1.193 6.094a5.262 5.262 0 0 1 6.884 2.81 5.265 5.265 0 0 1-2.81 6.887l-.283.11a5.252 5.252 0 0 1-1.755.303c-.673 0-1.345-.13-1.986-.392a5.228 5.228 0 0 1-2.86-2.832 5.222 5.222 0 0 1-.022-4.025 5.226 5.226 0 0 1 2.832-2.861zm2.036 3.095c-.226 0-.455.045-.677.138-.43.18-.765.52-.942.952a1.73 1.73 0 0 0 .007 1.34c.18.432.52.767.952.944.434.178.91.175 1.34-.007l.137-.064a1.756 1.756 0 0 0 .8-2.23 1.754 1.754 0 0 0-1.617-1.073zM22.399 0c1.312 0 2.509.732 3.11 1.886l.09.185L26.67 4.46l.902.435 2.536-.652a3.508 3.508 0 0 1 3.476 1.046l.14.165 3.144 3.942a3.51 3.51 0 0 1 .468 3.597l-.093.196-1.199 2.328.223.976 2.09 1.577a3.506 3.506 0 0 1 1.347 3.378l-.04.202-1.123 4.918a3.508 3.508 0 0 1-2.53 2.612l-.2.046-2.568.515-.624.782.07 2.617a3.506 3.506 0 0 1-1.8 3.16l-.183.094-4.545 2.188a3.513 3.513 0 0 1-3.603-.337l-.18-.142-2.002-1.686h-1l-2.003 1.686a3.507 3.507 0 0 1-3.573.572l-.21-.093-4.544-2.188a3.508 3.508 0 0 1-1.983-3.048v-.206l.07-2.617-.624-.782-2.567-.513a3.508 3.508 0 0 1-2.68-2.46l-.051-.2L.088 21.65a3.506 3.506 0 0 1 1.146-3.45l.161-.13 2.09-1.576.222-.976L2.51 13.19a3.507 3.507 0 0 1 .245-3.62l.13-.174L6.03 5.454a3.508 3.508 0 0 1 3.398-1.26l.217.05 2.536.651.906-.436 1.071-2.388A3.506 3.506 0 0 1 17.15.006L17.356 0H22.4zm-.002 3.508h-5.043l-1.597 3.557L12.55 8.61l-3.776-.97-3.145 3.943 1.785 3.466-.793 3.473-3.113 2.347 1.123 4.918 3.822.765 2.22 2.785-.104 3.896 4.544 2.188 2.982-2.512h3.56l2.983 2.512 4.544-2.188-.104-3.896 2.22-2.785 3.822-.765 1.123-4.918-3.112-2.347-.792-3.473 1.784-3.466-3.144-3.943-3.776.97-3.209-1.545-1.596-3.557zm-2.522 8.038c4.528 0 8.211 3.684 8.211 8.211 0 4.528-3.683 8.21-8.21 8.21-4.528 0-8.212-3.682-8.212-8.21 0-4.527 3.684-8.21 8.211-8.21zm0 3.507a4.71 4.71 0 0 0-4.704 4.703 4.709 4.709 0 0 0 4.704 4.704 4.709 4.709 0 0 0 4.704-4.704 4.709 4.709 0 0 0-4.704-4.703z" fill="#C4CCE8"/></svg>